# xmcd CD database file
#
# Track frame offsets:
#	150
#	16169
#	35566
#	53475
#	69450
#	86376
#	102069
#	116901
#	135764
#	155876
#
# Disc length: 2265 seconds
#
# Revision: 0
# Processed by: cddbd v1.5.1PL2 Copyright (c) Steve Scherf et al.
# Submitted via: CDex 1.51
#
DISCID=7508d70a
DTITLE=Luella - Luella
DYEAR=2005
DGENRE=Country
TTITLE0=Tonight
TTITLE1=New Flame
TTITLE2=Without You
TTITLE3=Wastin' Time
TTITLE4=How To Fly
TTITLE5=No Joyride
TTITLE6=I Won't
TTITLE7=Melting Pot
TTITLE8=When I Found The Blues
TTITLE9=I Don't Give Up So Easy
EXTD=YEAR: 2005
EXTT0=
EXTT1=
EXTT2=
EXTT3=
EXTT4=
EXTT5=
EXTT6=
EXTT7=
EXTT8=
EXTT9=
PLAYORDER=
